# xmcd
#
# Track frame offsets:
#	150
#	11547
#	25983
#	35689
#	51752
#	64617
#	84008
#	95706
#	107164
#	124696
#	142736
#	153992
#	166453
#	182061
#	197863
#	215746
#	234253
#
# Disc length: 3315 seconds
#
# Revision: 1
# Processed by: cddbd v1.5.2PL0 Copyright (c) Steve Scherf et al.
# Submitted via: audiograbber 1.83.01
#
DISCID=df0cf111
DTITLE=Becky Hobbs - Nanyehi-Beloved Woman of the Cherokee
DYEAR=2011
DGENRE=Country
TTITLE0=White Wolf On The Horzon
TTITLE1=Song of the Nunnehi
TTITLE2=Stickball Song
TTITLE3=O Great Spirit (feat. Duane Sciacqua)
TTITLE4=Battle of Taliwa
TTITLE5=Donadagohvi (Until We Meet Again)
TTITLE6=Little Fellow My Son (feat. Duane Sciacqua)
TTITLE7=Pass the Whiskey (feat. Sean McNamara)
TTITLE8=By the Fire
TTITLE9=This Land Is Not Our Land (feat. Eddie Dunbar)
TTITLE10=Long Way Over (feat. Sean McNamara)
TTITLE11=There Will Be Blood (feat. Eddie Dunbar)
TTITLE12=Pale Moon
TTITLE13=The Same Thing (feat. Benita Hill)
TTITLE14=Brave Little Soldier
TTITLE15=Let There Be Peace
TTITLE16=Nanyehi
EXTD=
EXTT0=
EXTT1=
EXTT2=
EXTT3=
EXTT4=
EXTT5=
EXTT6=
EXTT7=
EXTT8=
EXTT9=
EXTT10=
EXTT11=
EXTT12=
EXTT13=
EXTT14=
EXTT15=
EXTT16=
PLAYORDER=
